<mxfile host="Electron" agent="Mozilla/5.0 (Windows NT 10.0; Win64; x64) AppleWebKit/537.36 (KHTML, like Gecko) draw.io/26.2.2 Chrome/134.0.6998.178 Electron/35.1.2 Safari/537.36" version="26.2.2">
  <diagram id="review_submission_sequence" name="评价提交流程时序图">
    <mxGraphModel dx="1212" dy="719" grid="1" gridSize="10" guides="1" tooltips="1" connect="1" arrows="1" fold="1" page="1" pageScale="1" pageWidth="1169" pageHeight="827" math="0" shadow="0">
      <root>
        <mxCell id="0" />
        <mxCell id="1" parent="0" />
        <mxCell id="lifeline-user" value="用户 (Guest)" style="shape=umlLifeline;perimeter=lifelinePerimeter;container=1;collapsible=0;recursiveResize=0;rounded=0;shadow=0;strokeWidth=1;size=80;" parent="1" vertex="1">
          <mxGeometry x="70" y="40" width="100" height="500" as="geometry" />
        </mxCell>
        <mxCell id="lifeline-fe" value="前端 (Frontend)" style="shape=umlLifeline;perimeter=lifelinePerimeter;container=1;collapsible=0;recursiveResize=0;rounded=0;shadow=0;strokeWidth=1;size=80;" parent="1" vertex="1">
          <mxGeometry x="210" y="40" width="110" height="500" as="geometry" />
        </mxCell>
        <mxCell id="act-fe-1" value="" style="html=1;points=[];align=center;imageAlign=center;verticalAlign=middle;labelBackgroundColor=none;" parent="lifeline-fe" vertex="1">
          <mxGeometry x="50" y="100" width="10" height="350" as="geometry" />
        </mxCell>
        <mxCell id="lifeline-review-controller" value="ReviewController" style="shape=umlLifeline;perimeter=lifelinePerimeter;container=1;collapsible=0;recursiveResize=0;rounded=0;shadow=0;strokeWidth=1;size=80;" parent="1" vertex="1">
          <mxGeometry x="340" y="40" width="120" height="500" as="geometry" />
        </mxCell>
        <mxCell id="controller-activation" value="" style="html=1;points=[];align=center;imageAlign=center;verticalAlign=middle;labelBackgroundColor=none;" vertex="1" parent="lifeline-review-controller">
          <mxGeometry x="55" y="150" width="10" height="300" as="geometry" />
        </mxCell>
        <mxCell id="lifeline-review-service" value="ReviewService" style="shape=umlLifeline;perimeter=lifelinePerimeter;container=1;collapsible=0;recursiveResize=0;rounded=0;shadow=0;strokeWidth=1;size=80;" parent="1" vertex="1">
          <mxGeometry x="470" y="40" width="120" height="500" as="geometry" />
        </mxCell>
        <mxCell id="service-activation" value="" style="html=1;points=[];align=center;imageAlign=center;verticalAlign=middle;labelBackgroundColor=none;" vertex="1" parent="lifeline-review-service">
          <mxGeometry x="55" y="200" width="10" height="200" as="geometry" />
        </mxCell>
        <mxCell id="lifeline-ordersvc" value="OrderRepository" style="shape=umlLifeline;perimeter=lifelinePerimeter;container=1;collapsible=0;recursiveResize=0;rounded=0;shadow=0;strokeWidth=1;size=80;" parent="1" vertex="1">
          <mxGeometry x="599" y="40" width="150" height="500" as="geometry" />
        </mxCell>
        <mxCell id="order-activation" value="" style="html=1;points=[];align=center;imageAlign=center;verticalAlign=middle;labelBackgroundColor=none;" vertex="1" parent="lifeline-ordersvc">
          <mxGeometry x="70" y="250" width="10" height="40" as="geometry" />
        </mxCell>
        <mxCell id="lifeline-revrepo" value="ReviewRepository" style="shape=umlLifeline;perimeter=lifelinePerimeter;whiteSpace=wrap;html=1;container=1;collapsible=0;recursiveResize=0;rounded=0;shadow=0;strokeWidth=1;size=60;part=1;" parent="1" vertex="1">
          <mxGeometry x="760" y="40" width="130" height="500" as="geometry" />
        </mxCell>
        <mxCell id="review-activation" value="" style="html=1;points=[];align=center;imageAlign=center;verticalAlign=middle;labelBackgroundColor=none;" vertex="1" parent="lifeline-revrepo">
          <mxGeometry x="60" y="280" width="10" height="40" as="geometry" />
        </mxCell>
        <mxCell id="lifeline-notification" value="NotificationService" style="shape=umlLifeline;perimeter=lifelinePerimeter;whiteSpace=wrap;html=1;container=1;collapsible=0;recursiveResize=0;rounded=0;shadow=0;strokeWidth=1;size=60;part=1;" parent="1" vertex="1">
          <mxGeometry x="900" y="40" width="140" height="500" as="geometry" />
        </mxCell>
        <mxCell id="notification-activation" value="" style="html=1;points=[];align=center;imageAlign=center;verticalAlign=middle;labelBackgroundColor=none;" vertex="1" parent="lifeline-notification">
          <mxGeometry x="69" y="330" width="10" height="40" as="geometry" />
        </mxCell>
        <mxCell id="msg-1" value="1. 进入评价页面 (针对某已完成订单)" style="html=1;verticalAlign=bottom;endArrow=block;edgeStyle=elbowEdgeStyle;elbow=horizontal;rounded=0;labelBackgroundColor=none;" parent="1" source="lifeline-user" target="act-fe-1" edge="1">
          <mxGeometry relative="1" as="geometry">
            <mxPoint x="130" y="140" as="sourcePoint" />
            <mxPoint x="295" y="140" as="targetPoint" />
            <Array as="points">
              <mxPoint x="180" y="140" />
            </Array>
            <mxPoint as="offset" />
          </mxGeometry>
        </mxCell>
        <mxCell id="msg-4" value="2. 填写评分和评论内容，提交" style="html=1;verticalAlign=bottom;endArrow=block;edgeStyle=elbowEdgeStyle;elbow=horizontal;rounded=0;labelBackgroundColor=none;exitX=0.549;exitY=0.281;exitDx=0;exitDy=0;exitPerimeter=0;" parent="1" source="lifeline-user" edge="1" target="act-fe-1">
          <mxGeometry relative="1" as="geometry">
            <mxPoint x="70" y="180" as="sourcePoint" />
            <mxPoint x="260" y="180" as="targetPoint" />
            <Array as="points">
              <mxPoint x="170" y="180" />
            </Array>
            <mxPoint as="offset" />
          </mxGeometry>
        </mxCell>
        <mxCell id="msg-5" value="3. POST /api/reviews" style="html=1;verticalAlign=bottom;endArrow=block;edgeStyle=elbowEdgeStyle;elbow=horizontal;rounded=0;labelBackgroundColor=none;" parent="1" edge="1">
          <mxGeometry relative="1" as="geometry">
            <mxPoint x="270" y="220" as="sourcePoint" />
            <mxPoint x="400" y="220" as="targetPoint" />
            <Array as="points">
              <mxPoint x="350" y="220" />
            </Array>
            <mxPoint as="offset" />
          </mxGeometry>
        </mxCell>
        <mxCell id="call-service" value="4. 验证订单状态和归属" style="html=1;verticalAlign=bottom;endArrow=block;edgeStyle=elbowEdgeStyle;elbow=horizontal;rounded=0;labelBackgroundColor=none;exitX=0.971;exitY=0.173;exitDx=0;exitDy=0;exitPerimeter=0;entryX=0.471;entryY=0.007;entryDx=0;entryDy=0;entryPerimeter=0;" edge="1" parent="1" source="controller-activation" target="service-activation">
          <mxGeometry relative="1" as="geometry">
            <mxPoint x="440" y="240" as="sourcePoint" />
            <mxPoint x="560" y="240" as="targetPoint" />
            <Array as="points">
              <mxPoint x="525" y="240" />
            </Array>
            <mxPoint as="offset" />
          </mxGeometry>
        </mxCell>
        <mxCell id="msg-7" value="5. 查询订单信息" style="html=1;verticalAlign=bottom;endArrow=block;edgeStyle=elbowEdgeStyle;elbow=horizontal;rounded=0;labelBackgroundColor=none;entryX=0.529;entryY=0.459;entryDx=0;entryDy=0;entryPerimeter=0;exitX=0.497;exitY=0.459;exitDx=0;exitDy=0;exitPerimeter=0;" parent="1" source="lifeline-review-service" target="lifeline-ordersvc" edge="1">
          <mxGeometry relative="1" as="geometry">
            <mxPoint x="574" y="270" as="sourcePoint" />
            <mxPoint x="749" y="270" as="targetPoint" />
            <Array as="points">
              <mxPoint x="639" y="270" />
            </Array>
            <mxPoint as="offset" />
          </mxGeometry>
        </mxCell>
        <mxCell id="msg-13" value="6. 保存评价信息" style="html=1;verticalAlign=bottom;endArrow=block;edgeStyle=elbowEdgeStyle;elbow=horizontal;rounded=0;labelBackgroundColor=none;" parent="1" source="lifeline-review-service" target="lifeline-revrepo" edge="1">
          <mxGeometry relative="1" as="geometry">
            <mxPoint x="574" y="320" as="sourcePoint" />
            <mxPoint x="910" y="320" as="targetPoint" />
            <Array as="points">
              <mxPoint x="729" y="320" />
            </Array>
            <mxPoint as="offset" />
          </mxGeometry>
        </mxCell>
        <mxCell id="msg-18" value="8. 返回评价提交成功响应" style="html=1;verticalAlign=bottom;endArrow=open;dashed=1;edgeStyle=elbowEdgeStyle;elbow=horizontal;rounded=0;labelBackgroundColor=none;" parent="1" edge="1">
          <mxGeometry relative="1" as="geometry">
            <mxPoint x="400" y="420" as="sourcePoint" />
            <mxPoint x="270" y="420" as="targetPoint" />
            <Array as="points">
              <mxPoint x="350" y="420" />
            </Array>
            <mxPoint as="offset" />
          </mxGeometry>
        </mxCell>
        <mxCell id="msg-19" value="9. 显示&quot;评价成功&quot;" style="html=1;verticalAlign=bottom;endArrow=block;edgeStyle=elbowEdgeStyle;elbow=horizontal;rounded=0;labelBackgroundColor=none;" parent="1" edge="1">
          <mxGeometry relative="1" as="geometry">
            <mxPoint x="260" y="450" as="sourcePoint" />
            <mxPoint x="120" y="450" as="targetPoint" />
            <Array as="points">
              <mxPoint x="180" y="450" />
            </Array>
            <mxPoint as="offset" />
          </mxGeometry>
        </mxCell>
        <mxCell id="note-validate" value="验证逻辑：&#xa;1. 检查用户是否是订单所有者&#xa;2. 检查订单是否已完成&#xa;3. 检查用户是否已经评论过该订单" style="shape=note;size=15;whiteSpace=wrap;html=1;verticalAlign=top;align=left;spacingLeft=5;fillColor=#f5f5f5;strokeColor=#666666;" parent="1" vertex="1">
          <mxGeometry x="749" y="170" width="230" height="70" as="geometry" />
        </mxCell>
        <mxCell id="msg-15" value="7. 创建通知" style="html=1;verticalAlign=bottom;endArrow=block;edgeStyle=elbowEdgeStyle;elbow=horizontal;rounded=0;labelBackgroundColor=none;entryX=-0.088;entryY=0.081;entryDx=0;entryDy=0;entryPerimeter=0;exitX=0.867;exitY=0.662;exitDx=0;exitDy=0;exitPerimeter=0;" parent="1" source="service-activation" target="notification-activation" edge="1">
          <mxGeometry relative="1" as="geometry">
            <mxPoint x="574" y="370" as="sourcePoint" />
            <mxPoint x="1094" y="370" as="targetPoint" />
            <Array as="points">
              <mxPoint x="829" y="370" />
            </Array>
            <mxPoint as="offset" />
          </mxGeometry>
        </mxCell>
      </root>
    </mxGraphModel>
  </diagram>
</mxfile>
